<svg width="23" height="56" viewBox="0 0 23 56" fill="none" xmlns="http://www.w3.org/2000/svg">
<mask id="path-1-outside-1_2_859" maskUnits="userSpaceOnUse" x="-1" y="-1" width="25" height="58" fill="black">
<rect fill="white" x="-1" y="-1" width="25" height="58"/>
<path d="M22.6797 0.804688V56H12.9141V16.9766H0.0234375V9.4375H7.40625C11.3385 9.4375 13.3047 7.67969 13.3047 4.16406V0.804688H22.6797Z"/>
</mask>
<path d="M22.6797 0.804688H23.6797V-0.195312H22.6797V0.804688ZM22.6797 56V57H23.6797V56H22.6797ZM12.9141 56H11.9141V57H12.9141V56ZM12.9141 16.9766H13.9141V15.9766H12.9141V16.9766ZM0.0234375 16.9766H-0.976562V17.9766H0.0234375V16.9766ZM0.0234375 9.4375V8.4375H-0.976562V9.4375H0.0234375ZM13.3047 0.804688V-0.195312H12.3047V0.804688H13.3047ZM21.6797 0.804688V56H23.6797V0.804688H21.6797ZM22.6797 55H12.9141V57H22.6797V55ZM13.9141 56V16.9766H11.9141V56H13.9141ZM12.9141 15.9766H0.0234375V17.9766H12.9141V15.9766ZM1.02344 16.9766V9.4375H-0.976562V16.9766H1.02344ZM0.0234375 10.4375H7.40625V8.4375H0.0234375V10.4375ZM7.40625 10.4375C9.50064 10.4375 11.2582 9.97181 12.4966 8.86464C13.7563 7.73841 14.3047 6.1068 14.3047 4.16406H12.3047C12.3047 5.73695 11.87 6.74206 11.1636 7.37364C10.4358 8.02428 9.24415 8.4375 7.40625 8.4375V10.4375ZM14.3047 4.16406V0.804688H12.3047V4.16406H14.3047ZM13.3047 1.80469H22.6797V-0.195312H13.3047V1.80469Z" fill="#E8E8E8" mask="url(#path-1-outside-1_2_859)"/>
</svg>
