<svg width="41" height="56" viewBox="0 0 41 56" fill="none" xmlns="http://www.w3.org/2000/svg">
<mask id="path-1-outside-1_2_862" maskUnits="userSpaceOnUse" x="-1" y="-1" width="43" height="58" fill="black">
<rect fill="white" x="-1" y="-1" width="43" height="58"/>
<path d="M40.125 47.0547V56H0.671875V48.1484C7.57292 44.0339 13.7578 39.2812 19.2266 33.8906C24.7214 28.474 27.4688 22.8359 27.4688 16.9766C27.4688 14.6068 26.8177 12.6797 25.5156 11.1953C24.2396 9.71094 22.3125 8.96875 19.7344 8.96875C16.4271 8.96875 14.0312 10.1146 12.5469 12.4062C11.0625 14.6979 10.2552 17.5234 10.125 20.8828L0.4375 20.2578C0.4375 16.7682 1.20573 13.474 2.74219 10.375C4.27865 7.27604 6.50521 4.78906 9.42188 2.91406C12.3385 1.01302 15.75 0.0625 19.6562 0.0625C23.0677 0.0625 26.1146 0.739583 28.7969 2.09375C31.4792 3.42188 33.5755 5.375 35.0859 7.95312C36.6224 10.5312 37.3906 13.6172 37.3906 17.2109C37.3906 20.9609 36.3099 24.8151 34.1484 28.7734C32.013 32.7057 29.3568 36.2995 26.1797 39.5547C23.0026 42.7839 19.9297 45.2839 16.9609 47.0547H40.125Z"/>
</mask>
<path d="M40.125 47.0547H41.125V46.0547H40.125V47.0547ZM40.125 56V57H41.125V56H40.125ZM0.671875 56H-0.328125V57H0.671875V56ZM0.671875 48.1484L0.159765 47.2895L-0.328125 47.5804V48.1484H0.671875ZM19.2266 33.8906L19.9286 34.6028L19.9286 34.6028L19.2266 33.8906ZM25.5156 11.1953L24.7573 11.8472L24.7639 11.8547L25.5156 11.1953ZM10.125 20.8828L10.0606 21.8807L11.0845 21.9468L11.1242 20.9215L10.125 20.8828ZM0.4375 20.2578H-0.5625V21.1954L0.373118 21.2557L0.4375 20.2578ZM2.74219 10.375L1.84626 9.9308L2.74219 10.375ZM9.42188 2.91406L9.96264 3.75526L9.96791 3.75182L9.42188 2.91406ZM28.7969 2.09375L28.3462 2.98646L28.3531 2.98991L28.7969 2.09375ZM35.0859 7.95312L34.2231 8.45864L34.2269 8.46507L35.0859 7.95312ZM34.1484 28.7734L33.2708 28.2942L33.2697 28.2962L34.1484 28.7734ZM26.1797 39.5547L26.8925 40.256L26.8953 40.2532L26.1797 39.5547ZM16.9609 47.0547L16.4487 46.1959L13.3324 48.0547H16.9609V47.0547ZM39.125 47.0547V56H41.125V47.0547H39.125ZM40.125 55H0.671875V57H40.125V55ZM1.67188 56V48.1484H-0.328125V56H1.67188ZM1.18399 49.0074C8.15079 44.8536 14.4001 40.0523 19.9286 34.6028L18.5246 33.1784C13.1156 38.5102 6.99504 43.2141 0.159765 47.2895L1.18399 49.0074ZM19.9286 34.6028C25.5512 29.0601 28.4688 23.1806 28.4688 16.9766H26.4688C26.4688 22.4913 23.8915 27.8878 18.5245 33.1785L19.9286 34.6028ZM28.4688 16.9766C28.4688 14.4151 27.7602 12.2377 26.2674 10.5359L24.7639 11.8547C25.8752 13.1217 26.4688 14.7984 26.4688 16.9766H28.4688ZM26.2739 10.5434C24.7521 8.77308 22.5057 7.96875 19.7344 7.96875V9.96875C22.1193 9.96875 23.7271 10.6488 24.7573 11.8472L26.2739 10.5434ZM19.7344 7.96875C16.1705 7.96875 13.417 9.22344 11.7076 11.8626L13.3862 12.9499C14.6455 11.0057 16.6836 9.96875 19.7344 9.96875V7.96875ZM11.7076 11.8626C10.1052 14.3365 9.26132 17.3464 9.12575 20.8441L11.1242 20.9215C11.2491 17.7004 12.0198 15.0594 13.3862 12.9499L11.7076 11.8626ZM10.1894 19.8849L0.501882 19.2599L0.373118 21.2557L10.0606 21.8807L10.1894 19.8849ZM1.4375 20.2578C1.4375 16.9209 2.17074 13.7788 3.63812 10.8192L1.84626 9.9308C0.24072 13.1691 -0.5625 16.6155 -0.5625 20.2578H1.4375ZM3.63812 10.8192C5.09405 7.88266 7.19768 5.53271 9.96263 3.75524L8.88112 2.07288C5.81274 4.04541 3.46325 6.66942 1.84626 9.9308L3.63812 10.8192ZM9.96791 3.75182C12.7028 1.96925 15.9195 1.0625 19.6562 1.0625V-0.9375C15.5805 -0.9375 11.9743 0.0567894 8.87584 2.0763L9.96791 3.75182ZM19.6562 1.0625C22.9325 1.0625 25.8215 1.71185 28.3462 2.98644L29.2476 1.20106C26.4076 -0.232686 23.2029 -0.9375 19.6562 -0.9375V1.0625ZM28.3531 2.98991C30.8609 4.23164 32.8115 6.04911 34.2231 8.45862L35.9488 7.44763C34.3396 4.70089 32.0974 2.61211 29.2406 1.19759L28.3531 2.98991ZM34.2269 8.46507C35.6544 10.8603 36.3906 13.7617 36.3906 17.2109H38.3906C38.3906 13.4727 37.5904 10.2022 35.945 7.44118L34.2269 8.46507ZM36.3906 17.2109C36.3906 20.7626 35.3682 24.4532 33.2708 28.2942L35.0261 29.2527C37.2516 25.177 38.3906 21.1592 38.3906 17.2109H36.3906ZM33.2697 28.2962C31.1789 32.1463 28.5779 35.6658 25.464 38.8562L26.8953 40.2532C30.1356 36.9332 32.8471 33.2652 35.0272 29.2507L33.2697 28.2962ZM25.4669 38.8534C22.3323 42.0393 19.3255 44.4799 16.4487 46.1959L17.4732 47.9135C20.5339 46.0879 23.673 43.5284 26.8925 40.256L25.4669 38.8534ZM16.9609 48.0547H40.125V46.0547H16.9609V48.0547Z" fill="#E8E8E8" mask="url(#path-1-outside-1_2_862)"/>
</svg>
