<svg width="42" height="58" viewBox="0 0 42 58" fill="none" xmlns="http://www.w3.org/2000/svg">
<mask id="path-1-outside-1_2_863" maskUnits="userSpaceOnUse" x="-1" y="-1" width="44" height="60" fill="black">
<rect fill="white" x="-1" y="-1" width="44" height="60"/>
<path d="M20.7344 57.7812C16.9583 57.7812 13.5208 57.1042 10.4219 55.75C7.32292 54.3698 4.84896 52.3125 3 49.5781C1.15104 46.8438 0.226562 43.5104 0.226562 39.5781L9.67969 38.9922C9.67969 40.9974 10.1615 42.7292 11.125 44.1875C12.0885 45.6458 13.4167 46.7656 15.1094 47.5469C16.8021 48.3021 18.7292 48.6797 20.8906 48.6797C22.8438 48.6797 24.6406 48.3542 26.2812 47.7031C27.9479 47.0521 29.276 46.0755 30.2656 44.7734C31.2552 43.4453 31.75 41.8438 31.75 39.9688C31.75 37.5469 31.099 35.75 29.7969 34.5781C28.5208 33.3802 26.9583 32.638 25.1094 32.3516C23.2604 32.0391 20.9688 31.8828 18.2344 31.8828V24.3438C21.2031 24.3438 23.4427 24.0703 24.9531 23.5234C26.4635 22.9505 27.4661 22.1823 27.9609 21.2188C28.4557 20.2292 28.7031 18.9271 28.7031 17.3125C28.7031 14.9948 27.9609 13.237 26.4766 12.0391C24.9922 10.8151 23.0781 10.2031 20.7344 10.2031C18.2083 10.2031 16.1641 10.9062 14.6016 12.3125C13.0651 13.7188 12.2839 15.6328 12.2578 18.0547L2.88281 17.3906C2.88281 14.0312 3.67708 11.1146 5.26562 8.64062C6.85417 6.16667 8.98958 4.27865 11.6719 2.97656C14.3802 1.64844 17.349 0.984375 20.5781 0.984375C23.6771 0.984375 26.5807 1.59635 29.2891 2.82031C31.9974 4.04427 34.1589 5.80208 35.7734 8.09375C37.4141 10.3854 38.2344 13.0547 38.2344 16.1016C38.2344 18.4974 37.6745 20.6979 36.5547 22.7031C35.4349 24.6823 33.599 26.2708 31.0469 27.4688C34.5365 28.4062 37.1016 30.0599 38.7422 32.4297C40.3828 34.7734 41.2031 37.5469 41.2031 40.75C41.2031 44.3438 40.2656 47.4297 38.3906 50.0078C36.5417 52.5599 34.0547 54.5 30.9297 55.8281C27.8307 57.1302 24.4323 57.7812 20.7344 57.7812Z"/>
</mask>
<path d="M10.4219 55.75L10.015 56.6635L10.0215 56.6663L10.4219 55.75ZM0.226562 39.5781L0.164698 38.58L-0.773438 38.6382V39.5781H0.226562ZM9.67969 38.9922H10.6797V37.9283L9.61782 37.9941L9.67969 38.9922ZM15.1094 47.5469L14.6903 48.4549L14.7019 48.4601L15.1094 47.5469ZM26.2812 47.7031L25.9174 46.7717L25.9124 46.7736L26.2812 47.7031ZM30.2656 44.7734L31.0618 45.3785L31.0675 45.3709L30.2656 44.7734ZM29.7969 34.5781L29.1124 35.3072L29.1201 35.3144L29.1279 35.3214L29.7969 34.5781ZM25.1094 32.3516L24.9427 33.3377L24.9563 33.3398L25.1094 32.3516ZM18.2344 31.8828H17.2344V32.8828H18.2344V31.8828ZM18.2344 24.3438V23.3438H17.2344V24.3438H18.2344ZM24.9531 23.5234L25.2936 24.4637L25.3007 24.4611L25.3078 24.4584L24.9531 23.5234ZM27.9609 21.2188L28.8506 21.6756L28.8554 21.666L27.9609 21.2188ZM26.4766 12.0391L25.8403 12.8106L25.8485 12.8173L26.4766 12.0391ZM14.6016 12.3125L13.9326 11.5692L13.9264 11.5748L14.6016 12.3125ZM12.2578 18.0547L12.1872 19.0522L13.2463 19.1272L13.2578 18.0654L12.2578 18.0547ZM2.88281 17.3906H1.88281V18.3223L2.81216 18.3881L2.88281 17.3906ZM11.6719 2.97656L12.1086 3.87618L12.1122 3.87442L11.6719 2.97656ZM35.7734 8.09375L34.9559 8.66972L34.9603 8.67586L35.7734 8.09375ZM36.5547 22.7031L37.425 23.1956L37.4278 23.1907L36.5547 22.7031ZM31.0469 27.4688L30.622 26.5635L28.1471 27.7252L30.7874 28.4345L31.0469 27.4688ZM38.7422 32.4297L37.92 32.9989L37.923 33.0032L38.7422 32.4297ZM38.3906 50.0078L37.5819 49.4196L37.5808 49.4211L38.3906 50.0078ZM30.9297 55.8281L31.3171 56.7501L31.3208 56.7485L30.9297 55.8281ZM20.7344 56.7812C17.08 56.7812 13.781 56.1265 10.8223 54.8337L10.0215 56.6663C13.2607 58.0818 16.8366 58.7812 20.7344 58.7812V56.7812ZM10.8287 54.8365C7.89555 53.5301 5.56961 51.593 3.82839 49.018L2.17161 50.1383C4.12831 53.032 6.75028 55.2094 10.015 56.6635L10.8287 54.8365ZM3.82839 49.018C2.11125 46.4785 1.22656 43.3497 1.22656 39.5781H-0.773438C-0.773438 43.6712 0.190837 47.209 2.17161 50.1383L3.82839 49.018ZM0.288427 40.5762L9.74155 39.9903L9.61782 37.9941L0.164698 38.58L0.288427 40.5762ZM8.67969 38.9922C8.67969 41.1637 9.2038 43.0938 10.2907 44.7388L11.9593 43.6362C11.1191 42.3646 10.6797 40.831 10.6797 38.9922H8.67969ZM10.2907 44.7388C11.3637 46.3627 12.8404 47.601 14.6903 48.4548L15.5284 46.6389C13.9929 45.9302 12.8134 44.9289 11.9593 43.6362L10.2907 44.7388ZM14.7019 48.4601C16.5424 49.2812 18.6119 49.6797 20.8906 49.6797V47.6797C18.8465 47.6797 17.0618 47.3229 15.5168 46.6336L14.7019 48.4601ZM20.8906 49.6797C22.9566 49.6797 24.8802 49.335 26.6501 48.6326L25.9124 46.7736C24.4011 47.3734 22.7309 47.6797 20.8906 47.6797V49.6797ZM26.6451 48.6346C28.4665 47.9231 29.9505 46.8407 31.0618 45.3785L29.4695 44.1684C28.6016 45.3103 27.4294 46.1811 25.9174 46.7717L26.6451 48.6346ZM31.0675 45.3709C32.2024 43.8477 32.75 42.0293 32.75 39.9688H30.75C30.75 41.6582 30.308 43.0429 29.4637 44.176L31.0675 45.3709ZM32.75 39.9688C32.75 37.3758 32.0498 35.2604 30.4658 33.8348L29.1279 35.3214C30.1481 36.2396 30.75 37.7179 30.75 39.9688H32.75ZM30.4813 33.8491C29.048 32.5035 27.2961 31.6784 25.2625 31.3634L24.9563 33.3398C26.6205 33.5976 27.9937 34.2569 29.1124 35.3072L30.4813 33.8491ZM25.276 31.3655C23.3533 31.0406 21.0017 30.8828 18.2344 30.8828V32.8828C20.9358 32.8828 23.1675 33.0375 24.9427 33.3376L25.276 31.3655ZM19.2344 31.8828V24.3438H17.2344V31.8828H19.2344ZM18.2344 25.3438C21.2381 25.3438 23.6175 25.0706 25.2936 24.4637L24.6127 22.5832C23.268 23.0701 21.1682 23.3438 18.2344 23.3438V25.3438ZM25.3078 24.4584C26.9386 23.8398 28.1982 22.9458 28.8505 21.6756L27.0714 20.7619C26.7341 21.4188 25.9885 22.0612 24.5985 22.5884L25.3078 24.4584ZM28.8554 21.666C29.4441 20.4886 29.7031 19.0163 29.7031 17.3125H27.7031C27.7031 18.8378 27.4674 19.9697 27.0665 20.7715L28.8554 21.666ZM29.7031 17.3125C29.7031 14.7643 28.8749 12.6896 27.1046 11.2609L25.8485 12.8173C27.0469 13.7844 27.7031 15.2252 27.7031 17.3125H29.7031ZM27.1127 11.2675C25.4126 9.86562 23.2578 9.20312 20.7344 9.20312V11.2031C22.8985 11.2031 24.5718 11.7646 25.8404 12.8106L27.1127 11.2675ZM20.7344 9.20312C18.0138 9.20312 15.7143 9.96567 13.9326 11.5692L15.2705 13.0558C16.6138 11.8468 18.4029 11.2031 20.7344 11.2031V9.20312ZM13.9264 11.5748C12.152 13.1988 11.2864 15.3945 11.2579 18.0439L13.2578 18.0654C13.2813 15.8711 13.9782 14.2387 15.2767 13.0502L13.9264 11.5748ZM12.3285 17.0572L2.95347 16.3931L2.81216 18.3881L12.1872 19.0522L12.3285 17.0572ZM3.88281 17.3906C3.88281 14.1948 4.63623 11.4716 6.10709 9.18093L4.42416 8.10032C2.71794 10.7575 1.88281 13.8677 1.88281 17.3906H3.88281ZM6.10709 9.18093C7.59483 6.86396 9.5892 5.09917 12.1086 3.87617L11.2352 2.07696C8.38997 3.45812 6.1135 5.46937 4.42416 8.10032L6.10709 9.18093ZM12.1122 3.87442C14.6739 2.61818 17.4906 1.98438 20.5781 1.98438V-0.015625C17.2073 -0.015625 14.0865 0.678699 11.2316 2.07871L12.1122 3.87442ZM20.5781 1.98438C23.5413 1.98438 26.3039 2.56861 28.8772 3.73158L29.7009 1.90905C26.8576 0.624101 23.8129 -0.015625 20.5781 -0.015625V1.98438ZM28.8772 3.73158C31.433 4.88659 33.4505 6.5329 34.956 8.6697L36.5909 7.5178C34.8672 5.07127 32.5618 3.20195 29.7009 1.90905L28.8772 3.73158ZM34.9603 8.67586C36.4694 10.7838 37.2344 13.2456 37.2344 16.1016H39.2344C39.2344 12.8638 38.3587 9.98704 36.5865 7.51164L34.9603 8.67586ZM37.2344 16.1016C37.2344 18.3344 36.7145 20.3659 35.6816 22.2156L37.4278 23.1907C38.6344 21.0299 39.2344 18.6604 39.2344 16.1016H37.2344ZM35.6843 22.2107C34.6889 23.9701 33.0319 25.4323 30.622 26.5635L31.4718 28.374C34.166 27.1093 36.1809 25.3945 37.425 23.1956L35.6843 22.2107ZM30.7874 28.4345C34.1081 29.3266 36.4456 30.8691 37.92 32.9989L39.5644 31.8605C37.7576 29.2506 34.9648 27.4859 31.3063 26.503L30.7874 28.4345ZM37.923 33.0032C39.4321 35.159 40.2031 37.7265 40.2031 40.75H42.2031C42.2031 37.3673 41.3336 34.3879 39.5614 31.8562L37.923 33.0032ZM40.2031 40.75C40.2031 44.1605 39.317 47.0338 37.5819 49.4196L39.1994 50.596C41.2142 47.8255 42.2031 44.527 42.2031 40.75H40.2031ZM37.5808 49.4211C35.8468 51.8146 33.5097 53.6451 30.5385 54.9078L31.3208 56.7485C34.5997 55.3549 37.2366 53.3052 39.2004 50.5945L37.5808 49.4211ZM30.5423 54.9062C27.5778 56.1518 24.3126 56.7812 20.7344 56.7812V58.7812C24.5519 58.7812 28.0837 58.1086 31.3171 56.7501L30.5423 54.9062Z" fill="#E8E8E8" mask="url(#path-1-outside-1_2_863)"/>
</svg>
